<?xml version="1.0" encoding="iso-8859-1"?>
<!-- Generator: Adobe Illustrator 19.0.0, SVG Export Plug-In . SVG Version: 6.00 Build 0)  -->
<svg version="1.1" id="Layer_1" xmlns="http://www.w3.org/2000/svg" xmlns:xlink="http://www.w3.org/1999/xlink" x="0px" y="0px"
	 viewBox="0 0 512 512" style="enable-background:new 0 0 512 512;" xml:space="preserve">
<circle style="fill:#CFF09E;" cx="256" cy="150.002" r="81.97"/>
<g>
	<path style="fill:#507C5C;" d="M256,246.441c-24.711,0.001-49.413-9.403-68.224-28.215c-5.669-5.669-5.669-14.862,0-20.533
		c5.671-5.668,14.861-5.668,20.533,0c12.738,12.738,29.675,19.755,47.692,19.755s34.953-7.017,47.692-19.755
		c12.74-12.738,19.755-29.675,19.755-47.692s-7.017-34.953-19.755-47.692s-29.675-19.755-47.692-19.755
		c-18.017,0-34.953,7.017-47.692,19.755c-5.671,5.668-14.861,5.668-20.533,0c-5.669-5.669-5.669-14.862,0-20.533
		c37.62-37.617,98.829-37.617,136.448,0c18.223,18.225,28.26,42.453,28.26,68.224c0,25.773-10.036,50.001-28.26,68.224
		C305.417,237.035,280.704,246.438,256,246.441z"/>
	<path style="fill:#507C5C;" d="M262.569,143.834V120.49c9.318,1.633,10.719,6.799,10.929,9.836
		c0.054,0.778,0.697,1.379,1.477,1.379h10.177c0.855,0,1.527-0.723,1.484-1.577c-0.661-12.804-9.437-21.041-24.067-22.892v-7.85
		c0-0.819-0.663-1.482-1.482-1.482h-10.176c-0.819,0-1.482,0.663-1.482,1.482v7.85c-15.221,1.927-24.106,10.765-24.106,24.469
		s8.884,22.542,24.106,24.468v23.344c-9.318-1.633-10.719-6.799-10.929-9.836c-0.054-0.778-0.697-1.379-1.477-1.379h-10.177
		c-0.855,0-1.527,0.723-1.484,1.577c0.661,12.804,9.437,21.041,24.067,22.892v7.85c0,0.819,0.663,1.482,1.482,1.482h10.176
		c0.819,0,1.482-0.663,1.482-1.482v-7.85c15.222-1.925,24.106-10.765,24.106-24.469S277.792,145.757,262.569,143.834z
		 M249.43,142.92c-10.964-1.922-10.967-8.734-10.967-11.215c0-2.48,0.003-9.293,10.967-11.217V142.92z M262.569,179.518v-22.432
		c10.964,1.922,10.967,8.736,10.967,11.217C273.537,170.782,273.535,177.594,262.569,179.518z"/>
</g>
<path style="fill:#CFF09E;" d="M335.368,422.283c-25.797,25.797-77.508,15.912-77.508,15.912s-9.885-51.711,15.912-77.508
	s77.509-15.912,77.509-15.912S361.166,396.486,335.368,422.283z"/>
<path style="fill:#507C5C;" d="M256,0c-40.067,0-77.736,15.603-106.069,43.935s-43.934,66.001-43.934,106.067
	c0,77.815,59.56,141.974,135.484,149.3v45.131c-31.782-23.421-81.243-14.348-83.489-13.919c-5.845,1.118-10.417,5.688-11.533,11.533
	c-0.462,2.42-10.976,59.619,19.906,90.499c2.835,2.834,6.551,4.252,10.266,4.252s7.432-1.418,10.266-4.252
	c5.669-5.671,5.669-14.862,0-20.533c-13.146-13.145-14.385-38.27-13.187-54.247c15.995-1.195,41.107,0.044,54.25,13.185
	c11.045,11.045,13.45,29.89,13.519,43.755l0.001,0.026v82.748c0,8.017,6.501,14.518,14.518,14.518s14.518-6.501,14.518-14.518
	v-43.243c3.094,0.199,6.53,0.334,10.203,0.334c19.565,0,46.708-3.821,64.912-22.026c30.882-30.88,20.368-88.079,19.906-90.499
	c-1.118-5.844-5.688-10.417-11.533-11.533c-0.453-0.087-11.25-2.12-25.59-2.12c-17.185,0-40.214,2.952-57.899,16.006v-45.115
	c36.026-3.54,70.02-20.125,94.951-46.728c5.482-5.849,5.184-15.038-0.666-20.522c-5.846-5.479-15.037-5.184-20.522,0.666
	c-23.128,24.677-54.478,38.267-88.282,38.267c-66.701,0-120.966-54.266-120.966-120.967c0-32.312,12.583-62.688,35.43-85.536
	s53.225-35.43,85.537-35.43c66.701,0,120.966,54.265,120.966,120.966c0,8.017,6.501,14.518,14.518,14.518
	s14.518-6.501,14.518-14.518C406.002,67.292,338.712,0,256,0z M284.04,370.954c11.173-11.175,30.3-13.521,44.376-13.521
	c3.635,0,6.988,0.161,9.874,0.382c1.193,15.993-0.058,41.074-13.188,54.202c-11.175,11.176-30.302,13.521-44.379,13.521
	c-3.635,0-6.988-0.16-9.872-0.38c-0.184-2.48-0.299-5.198-0.332-8.037v-2.863C270.692,399.302,273.622,381.371,284.04,370.954z"/>
<g>
</g>
<g>
</g>
<g>
</g>
<g>
</g>
<g>
</g>
<g>
</g>
<g>
</g>
<g>
</g>
<g>
</g>
<g>
</g>
<g>
</g>
<g>
</g>
<g>
</g>
<g>
</g>
<g>
</g>
</svg>
